<svg width="16" height="16" fill="none" xmlns="http://www.w3.org/2000/svg"><path d="M1.76 5.679c1.804-1.504 3.88-2.346 6.075-2.346 2.194 0 4.27.842 6.073 2.346a.667.667 0 00.854-1.024C12.756 2.982 10.387 2 7.834 2S2.91 2.982.907 4.655a.667.667 0 10.854 1.024z" fill="#424551"/><path fill-rule="evenodd" clip-rule="evenodd" d="M2.734 6.46c1.2-1.013 2.91-1.96 4.85-1.96 1.94 0 3.65.947 4.85 1.96.604.51 1.1 1.054 1.45 1.54.174.242.32.48.425.7.096.203.191.459.191.717 0 .257-.095.513-.191.716-.105.22-.25.458-.426.7a8.848 8.848 0 01-1.45 1.541c-1.199 1.012-2.909 1.96-4.85 1.96-1.94 0-3.65-.948-4.849-1.96a8.851 8.851 0 01-1.45-1.54 4.632 4.632 0 01-.425-.701C.762 9.93.667 9.674.667 9.417c0-.258.095-.514.192-.716.104-.221.25-.459.425-.701a8.85 8.85 0 011.45-1.54zm-.729 2.957a.995.995 0 00.058.143c.061.13.161.298.303.494.282.392.702.857 1.228 1.301C4.657 12.253 6.072 13 7.584 13c1.511 0 2.926-.747 3.989-1.645a7.53 7.53 0 001.229-1.3c.141-.197.241-.365.303-.495.035-.074.05-.12.057-.143a1.015 1.015 0 00-.057-.144 3.322 3.322 0 00-.303-.494 7.528 7.528 0 00-1.229-1.3 8.276 8.276 0 00-.715-.542 3.417 3.417 0 11-6.548 0 8.23 8.23 0 00-.716.541 7.57 7.57 0 00-1.228 1.301 3.322 3.322 0 00-.303.494.945.945 0 00-.058.144zm3.495-1.5a2.083 2.083 0 114.167 0 2.083 2.083 0 01-4.167 0z" fill="#424551"/></svg>