<svg width="18" height="18" fill="none" xmlns="http://www.w3.org/2000/svg"><path d="M17.317 5.566c-.04-.885-.182-1.494-.387-2.022a4.068 4.068 0 00-.964-1.478 4.102 4.102 0 00-1.475-.96C13.96.9 13.355.757 12.469.718 11.577.676 11.294.666 9.031.666s-2.546.01-3.435.049C4.71.754 4.1.897 3.574 1.102a4.066 4.066 0 00-1.478.964 4.103 4.103 0 00-.96 1.475C.93 4.07.786 4.677.747 5.563.706 6.455.696 6.738.696 9s.01 2.546.049 3.435c.039.886.182 1.494.387 2.022.212.56.54 1.061.964 1.478.417.423.921.752 1.475.96.53.206 1.136.349 2.022.388.888.039 1.172.049 3.435.049 2.262 0 2.546-.01 3.434-.05.886-.038 1.495-.181 2.022-.387a4.263 4.263 0 002.439-2.438c.205-.53.348-1.136.387-2.022.04-.889.05-1.172.05-3.435s-.004-2.546-.043-3.435zm-1.501 6.805c-.036.814-.173 1.253-.287 1.546a2.765 2.765 0 01-1.582 1.583c-.293.114-.736.25-1.546.286-.88.04-1.143.049-3.367.049s-2.49-.01-3.367-.049c-.814-.036-1.253-.172-1.546-.286a2.566 2.566 0 01-.957-.622 2.592 2.592 0 01-.622-.957c-.114-.293-.25-.736-.287-1.547-.039-.879-.048-1.143-.048-3.367 0-2.223.01-2.49.048-3.366.036-.814.173-1.254.287-1.547.133-.361.345-.69.625-.957.27-.277.596-.488.957-.622.293-.114.736-.25 1.547-.286.879-.04 1.143-.049 3.366-.049 2.227 0 2.491.01 3.367.049.814.036 1.253.172 1.546.286.362.134.69.345.958.622.276.27.488.596.622.957.113.293.25.736.286 1.547.039.88.049 1.143.049 3.366 0 2.224-.01 2.485-.049 3.364z" fill="#fff"/><path d="M9.03 4.72a4.283 4.283 0 000 8.562 4.282 4.282 0 000-8.562zm0 7.058a2.778 2.778 0 11.002-5.555 2.778 2.778 0 01-.001 5.555zm5.451-7.228a1 1 0 11-2 0 1 1 0 012 0z" fill="#fff"/></svg>