<svg width="135" height="139" fill="none" xmlns="http://www.w3.org/2000/svg"><g opacity=".2" fill="#fff"><path d="M67.046 0c37.064 0 67.046 31.01 67.046 69.343 0 38.238-29.982 69.342-67.046 69.342C30.074 138.685 0 107.676 0 69.342.092 31.01 30.074 0 67.046 0zm0 134.214c34.672 0 62.723-29.011 62.723-64.871S101.718 4.47 67.046 4.47c-34.673 0-62.724 29.011-62.724 64.871 0 35.766 28.143 64.872 62.724 64.872z"/><path d="M67.045 14.934c28.97 0 52.515 24.35 52.515 54.313s-23.544 54.314-52.515 54.314c-28.97 0-52.514-24.256-52.514-54.219 0-30.058 23.544-54.408 52.514-54.408zm0 100.351c24.556 0 44.514-20.64 44.514-46.038 0-25.397-19.958-46.038-44.514-46.038-24.556 0-44.513 20.641-44.513 46.038s19.957 46.038 44.513 46.038z"/></g></svg>