<svg width="170" height="170" fill="none" xmlns="http://www.w3.org/2000/svg"><g opacity=".8" clip-path="url(#clip0_2313_5537)" fill="#FFCF2D"><path d="M23.794 116.473c.792.792.785 1.987-.016 2.789-.801.801-1.996.808-2.788.016-.792-.792-.785-1.987.016-2.789a1.983 1.983 0 012.788-.016zm11.952-11.952c.792.792.785 1.987-.016 2.788-.801.802-1.996.809-2.788.017-.792-.793-.785-1.987.016-2.789.734-.734 2.062-.742 2.788-.016zm11.886-11.886c.792.792.785 1.987-.017 2.789-.8.801-1.996.808-2.788.016-.792-.792-.785-1.987.016-2.788a1.983 1.983 0 012.789-.017zm11.952-11.952c.792.792.785 1.987-.016 2.789-.802.8-1.997.808-2.789.016s-.785-1.987.016-2.789a1.983 1.983 0 012.789-.016zm11.952-11.952c.792.792.785 1.987-.016 2.788-.802.802-1.997.809-2.789.016-.792-.791-.785-1.986.016-2.788.735-.734 2.063-.742 2.789-.016zm11.952-11.952c.792.792.785 1.987-.016 2.788-.801.801-1.996.808-2.788.016-.793-.792-.786-1.987.016-2.788a1.983 1.983 0 012.788-.016zm11.885-11.885c.792.792.785 1.987-.016 2.788-.801.802-1.996.809-2.788.017-.792-.792-.785-1.987.016-2.789a1.983 1.983 0 012.788-.016zm11.952-11.952c.792.792.786 1.987-.016 2.788-.801.802-1.996.809-2.788.017-.792-.793-.785-1.988.016-2.789a1.983 1.983 0 012.788-.016zm11.953-11.952c.792.792.785 1.987-.017 2.788-.801.802-1.996.808-2.788.016-.792-.792-.785-1.987.016-2.788.735-.735 2.062-.742 2.789-.016zM33.629 126.308c.792.792.785 1.987-.016 2.789-.801.801-1.997.808-2.788.016-.793-.792-.786-1.987.016-2.789.8-.801 1.996-.808 2.788-.016zm11.952-11.952c.792.792.785 1.987-.016 2.788-.801.802-1.996.809-2.788.017-.792-.793-.786-1.988.016-2.789.734-.734 1.996-.808 2.788-.016zm11.885-11.886c.792.792.786 1.987-.016 2.789-.801.801-1.996.808-2.788.016-.792-.792-.785-1.987.016-2.789.801-.801 1.996-.808 2.788-.016zm11.953-11.952c.792.792.785 1.987-.016 2.788-.802.802-1.997.809-2.789.017s-.785-1.987.016-2.789c.802-.8 1.996-.808 2.789-.016zM81.37 78.566c.793.792.786 1.987-.015 2.788-.802.802-1.997.809-2.789.017-.792-.793-.785-1.988.016-2.789.735-.734 1.997-.808 2.789-.016zm11.953-11.952c.792.792.785 1.987-.016 2.788-.802.802-1.996.808-2.789.016-.792-.792-.785-1.987.016-2.788.802-.801 1.997-.808 2.789-.016zm11.885-11.884c.792.791.785 1.986-.016 2.788-.801.8-1.996.808-2.788.016-.792-.792-.785-1.987.016-2.789.801-.801 1.996-.808 2.788-.016zm11.952-11.953c.792.792.785 1.987-.016 2.788-.801.802-1.996.809-2.788.016-.792-.792-.785-1.987.016-2.788.801-.801 1.996-.808 2.788-.016zm11.952-11.952c.792.792.786 1.987-.016 2.788-.801.801-1.996.808-2.788.016-.792-.792-.785-1.987.016-2.788.735-.735 1.996-.808 2.788-.016zM4.19 96.87c.793.792.786 1.987-.016 2.788-.8.801-1.996.808-2.788.016-.792-.792-.785-1.987.016-2.788.801-.801 1.996-.808 2.789-.016zm11.953-11.952c.792.792.785 1.987-.016 2.788-.802.801-1.997.808-2.789.016s-.785-1.987.016-2.788c.735-.735 1.997-.808 2.789-.016zm11.885-11.886c.792.792.785 1.987-.016 2.788-.801.802-1.996.808-2.788.016-.792-.792-.719-2.053.016-2.788.801-.801 1.996-.808 2.788-.016zM39.98 61.08c.792.792.785 1.987-.016 2.788-.801.801-1.996.808-2.788.016-.792-.792-.719-2.054.016-2.788.734-.735 1.996-.808 2.788-.016zm11.952-11.952c.792.792.785 1.987-.016 2.788-.801.801-1.996.808-2.788.016-.792-.792-.785-1.987.016-2.788.735-.735 1.996-.808 2.788-.016zm11.952-11.953c.792.793.785 1.988-.016 2.789-.801.801-1.996.808-2.788.016-.792-.792-.785-1.987.016-2.788.801-.802 1.996-.809 2.788-.017zM75.77 25.29c.792.793.785 1.988-.016 2.789-.802.801-1.997.808-2.789.016s-.785-1.987.016-2.788c.802-.801 1.997-.808 2.789-.016zm11.952-11.952c.792.793.785 1.988-.016 2.789-.802.801-1.996.808-2.788.016-.793-.792-.786-1.987.016-2.788.8-.802 1.996-.809 2.788-.017zM99.674 1.386c.792.792.785 1.987-.016 2.789-.801.801-1.996.808-2.788.016-.792-.792-.785-1.987.016-2.789.734-.734 1.996-.808 2.788-.016zM14.025 106.705c.792.792.785 1.987-.016 2.788a1.983 1.983 0 01-2.788.016c-.792-.792-.785-1.987.016-2.788.801-.801 1.996-.808 2.788-.016zm11.952-11.952c.792.792.786 1.987-.016 2.788-.801.801-1.996.808-2.788.016-.792-.792-.785-1.987.016-2.788.735-.735 1.996-.809 2.788-.016zm11.886-11.886c.792.792.785 1.987-.016 2.788-.802.801-1.997.808-2.789.016s-.785-1.987.016-2.788c.802-.801 1.997-.808 2.789-.016zm11.952-11.952c.792.792.785 1.987-.016 2.788-.802.801-1.997.808-2.789.016s-.785-1.987.017-2.788c.8-.802 1.996-.808 2.788-.016zm11.952-11.952c.792.792.785 1.987-.016 2.788-.801.801-1.996.808-2.788.016-.793-.792-.786-1.987.016-2.788.734-.735 1.996-.809 2.788-.016zM73.72 47.01c.791.793.784 1.988-.017 2.789-.801.801-1.996.808-2.788.016-.792-.792-.786-1.987.016-2.788.801-.802 1.996-.809 2.788-.017zm11.885-11.884c.791.792.785 1.987-.017 2.788-.8.801-1.996.808-2.788.016-.792-.792-.785-1.987.016-2.788.801-.802 1.996-.808 2.788-.016zm11.952-11.952c.792.792.785 1.987-.017 2.788-.8.801-1.996.808-2.788.016-.792-.792-.785-1.987.016-2.788.802-.802 1.997-.809 2.789-.017zm11.952-11.953c.792.792.785 1.987-.016 2.789-.802.8-1.997.808-2.789.016s-.785-1.987.016-2.789c.735-.734 1.997-.808 2.789-.016zM43.398 136.077c.792.792.785 1.987-.016 2.788-.802.801-1.997.808-2.789.016s-.785-1.987.016-2.788a1.983 1.983 0 012.789-.016zm11.952-11.952c.792.792.785 1.987-.016 2.788-.801.801-1.996.808-2.789.016-.791-.792-.785-1.987.017-2.788.734-.735 2.062-.742 2.788-.016zm11.885-11.885c.792.792.785 1.987-.016 2.788-.801.801-1.996.808-2.788.016-.792-.792-.785-1.987.016-2.788a1.983 1.983 0 012.788-.016zm11.952-11.952c.792.792.785 1.987-.016 2.788-.801.801-1.996.808-2.788.016-.792-.792-.785-1.987.016-2.788a1.983 1.983 0 012.788-.016zM91.14 88.336c.792.792.785 1.987-.017 2.788-.8.801-1.996.808-2.788.016-.792-.792-.785-1.987.016-2.788.735-.735 2.062-.742 2.788-.016zm11.952-11.953c.792.793.785 1.988-.016 2.789-.802.801-1.997.808-2.789.016s-.785-1.987.016-2.788a1.984 1.984 0 012.789-.017zm11.885-11.885c.792.792.785 1.987-.016 2.788-.801.801-1.996.808-2.788.016-.792-.792-.786-1.987.016-2.788a1.983 1.983 0 012.788-.016zm11.952-11.952c.792.792.785 1.987-.016 2.788-.801.801-1.996.808-2.788.016-.792-.792-.785-1.987.016-2.788a1.983 1.983 0 012.788-.016zm11.952-11.953c.792.792.785 1.987-.016 2.789-.801.801-1.996.808-2.788.016-.792-.792-.785-1.987.016-2.789.734-.734 2.062-.742 2.788-.016zM53.233 145.912c.792.792.785 1.987-.017 2.788-.8.801-1.996.808-2.788.016-.792-.792-.785-1.987.016-2.788.801-.801 1.996-.808 2.788-.016zm11.951-11.952c.793.792.786 1.987-.016 2.788-.8.801-1.996.808-2.788.016-.792-.792-.785-1.987.016-2.788.735-.735 1.996-.808 2.788-.016zm11.886-11.886c.792.792.785 1.987-.016 2.788-.801.801-1.996.808-2.788.016-.793-.792-.786-1.987.016-2.788.8-.801 1.996-.808 2.788-.016zm11.936-9.164a1.971 1.971 0 00.016-2.788 1.97 1.97 0 00-2.788.016 1.971 1.971 0 00-.016 2.788 1.972 1.972 0 002.788-.016zm11.968-14.74c.792.792.785 1.987-.016 2.788-.801.801-1.996.808-2.788.016-.792-.792-.785-1.987.016-2.788.734-.735 1.996-.809 2.788-.016zm11.952-11.953c.792.793.786 1.987-.016 2.789-.801.801-1.996.808-2.788.016-.792-.792-.785-1.987.016-2.788.801-.802 1.996-.809 2.788-.017zm11.886-11.884c.792.792.785 1.987-.016 2.788-.802.801-1.997.808-2.789.016s-.785-1.987.016-2.788c.802-.802 1.997-.808 2.789-.016zm11.936-9.164a1.973 1.973 0 00.016-2.788 1.971 1.971 0 00-2.788.016 1.972 1.972 0 00-.017 2.788 1.972 1.972 0 002.789-.016zm11.968-14.741c.792.792.785 1.987-.016 2.789-.801.8-1.996.808-2.789.016-.792-.792-.785-1.987.017-2.788.734-.735 1.996-.809 2.788-.017zM63.068 155.747c.792.792.785 1.987-.017 2.788-.8.801-1.996.808-2.788.016-.792-.792-.785-1.987.016-2.788.801-.801 1.996-.808 2.789-.016zm11.952-11.952c.792.792.785 1.987-.016 2.788-.802.801-1.997.808-2.789.016s-.785-1.987.016-2.788c.735-.735 1.997-.808 2.789-.016zm11.885-11.885c.792.792.785 1.987-.016 2.788-.801.801-1.996.808-2.788.016-.793-.792-.786-1.987.016-2.788.8-.801 1.996-.808 2.788-.016zm11.952-11.953c.792.792.785 1.987-.016 2.788-.801.801-1.996.808-2.788.016-.792-.792-.785-1.987.016-2.788.801-.801 1.996-.808 2.788-.016zm11.952-11.951c.792.792.785 1.987-.016 2.788-.801.801-1.996.808-2.788.016-.792-.792-.785-1.987.016-2.788.734-.735 1.996-.809 2.788-.016zm11.952-11.954c.792.792.785 1.987-.016 2.789-.801.801-1.996.808-2.788.016-.792-.792-.785-1.987.016-2.788.801-.802 1.996-.809 2.788-.017zm11.886-11.884c.792.792.785 1.987-.016 2.788-.802.801-1.997.808-2.789.016s-.785-1.987.016-2.788c.802-.802 1.997-.808 2.789-.016zm11.952-11.952c.792.791.785 1.987-.016 2.788-.802.801-1.997.808-2.789.016s-.785-1.987.017-2.788c.801-.802 1.996-.809 2.788-.016zm11.952-11.953c.792.792.785 1.987-.016 2.789-.801.8-1.996.808-2.788.016-.792-.792-.786-1.987.016-2.789.734-.734 1.996-.808 2.788-.016zM72.836 165.515c.792.792.785 1.987-.016 2.789-.801.801-1.996.808-2.788.016-.792-.792-.785-1.987.016-2.789a1.983 1.983 0 012.788-.016zm11.952-11.952c.792.792.785 1.987-.016 2.788-.801.802-1.996.809-2.788.017-.792-.793-.785-1.987.016-2.789.734-.734 2.062-.742 2.788-.016zm11.885-11.886c.793.792.786 1.987-.016 2.789-.8.801-1.996.808-2.788.016-.792-.792-.785-1.987.016-2.788a1.982 1.982 0 012.788-.017zm11.953-11.952c.792.792.785 1.987-.017 2.789-.801.801-1.996.808-2.788.016-.792-.792-.785-1.987.016-2.789a1.984 1.984 0 012.789-.016zm11.952-11.952c.792.792.785 1.987-.016 2.788-.802.802-1.997.809-2.789.017-.792-.793-.785-1.988.016-2.789.735-.734 2.063-.742 2.789-.016zm11.952-11.952c.792.792.785 1.987-.016 2.788-.801.802-1.996.808-2.789.016-.792-.792-.785-1.987.017-2.788a1.983 1.983 0 012.788-.016zm11.885-11.885c.792.792.785 1.987-.016 2.788-.801.802-1.996.809-2.788.017-.792-.793-.785-1.987.016-2.789a1.983 1.983 0 012.788-.016zm11.952-11.952c.792.792.786 1.987-.016 2.788-.801.802-1.996.808-2.788.016-.792-.792-.785-1.987.016-2.788a1.983 1.983 0 012.788-.016zm11.952-11.952c.792.792.786 1.987-.016 2.788-.801.802-1.996.808-2.788.016-.792-.792-.785-1.987.016-2.788.735-.734 2.062-.742 2.788-.016z"/></g><defs><clipPath id="clip0_2313_5537"><path fill="#fff" transform="rotate(-45 118.644 49.144)" d="M0 0h139v101H0z"/></clipPath></defs></svg>