<svg width="216" height="225" fill="none" xmlns="http://www.w3.org/2000/svg"><path d="M34.083 163.335c1.167.897 1.368 2.448.468 3.619-.9 1.172-2.45 1.377-3.618.48-1.167-.897-1.368-2.448-.468-3.619.9-1.171 2.548-1.302 3.618-.48zm13.425-17.471c1.167.897 1.368 2.448.468 3.62-.9 1.171-2.45 1.376-3.618.479-1.167-.897-1.368-2.448-.467-3.619.825-1.074 2.547-1.302 3.617-.48zm13.35-17.372c1.168.897 1.368 2.448.468 3.62-.9 1.171-2.45 1.376-3.618.479-1.167-.897-1.367-2.448-.467-3.619.9-1.171 2.547-1.302 3.617-.48zm13.426-17.47c1.167.898 1.367 2.449.467 3.62-.9 1.171-2.45 1.377-3.617.48-1.168-.897-1.368-2.449-.468-3.62.9-1.171 2.548-1.302 3.618-.48zm13.425-17.469c1.167.897 1.368 2.448.468 3.62-.9 1.17-2.45 1.376-3.618.479-1.167-.897-1.368-2.448-.468-3.62.825-1.073 2.548-1.301 3.618-.48zm13.425-17.47c1.167.897 1.368 2.448.468 3.62-.9 1.17-2.45 1.376-3.618.48-1.167-.898-1.368-2.45-.468-3.62.9-1.171 2.548-1.302 3.618-.48zm13.35-17.372c1.168.897 1.368 2.448.468 3.62-.9 1.17-2.45 1.376-3.618.479-1.167-.897-1.367-2.448-.467-3.62.9-1.17 2.547-1.301 3.617-.479zm13.426-17.47c1.167.897 1.367 2.448.467 3.62-.9 1.17-2.45 1.376-3.617.48-1.168-.898-1.368-2.449-.468-3.62.9-1.171 2.548-1.302 3.618-.48zm13.425-17.47c1.167.898 1.368 2.449.468 3.62-.9 1.171-2.451 1.377-3.618.48-1.167-.897-1.368-2.449-.468-3.62.825-1.073 2.548-1.302 3.618-.48zM48.577 174.473c1.167.897 1.367 2.448.467 3.619-.9 1.171-2.45 1.377-3.617.48-1.168-.897-1.368-2.448-.468-3.62.9-1.171 2.45-1.376 3.618-.479zm13.425-17.47c1.167.897 1.368 2.448.468 3.619-.9 1.171-2.45 1.377-3.618.48-1.167-.897-1.368-2.448-.468-3.619.825-1.074 2.45-1.377 3.618-.48zm13.35-17.372c1.167.897 1.368 2.448.468 3.619-.9 1.171-2.45 1.377-3.618.48-1.167-.897-1.368-2.448-.468-3.619.9-1.172 2.45-1.377 3.618-.48zm13.425-17.47c1.168.897 1.368 2.448.468 3.62-.9 1.171-2.45 1.376-3.618.479-1.167-.897-1.367-2.448-.468-3.619.9-1.171 2.451-1.377 3.618-.48zm13.426-17.471c1.167.898 1.367 2.449.467 3.62-.9 1.171-2.45 1.377-3.618.48-1.167-.897-1.367-2.449-.467-3.62.825-1.073 2.45-1.377 3.618-.48zm13.425-17.47c1.167.898 1.368 2.449.468 3.62-.9 1.171-2.451 1.377-3.618.48-1.167-.897-1.368-2.448-.468-3.62.9-1.17 2.451-1.376 3.618-.48zm13.35-17.371c1.167.897 1.368 2.448.468 3.619-.9 1.171-2.451 1.377-3.618.48-1.167-.897-1.368-2.448-.468-3.62.9-1.17 2.451-1.376 3.618-.48zm13.425-17.47c1.168.897 1.368 2.448.468 3.62-.9 1.17-2.451 1.376-3.618.479-1.167-.897-1.368-2.448-.468-3.62.9-1.17 2.451-1.376 3.618-.48zm13.426-17.469c1.167.896 1.367 2.447.467 3.619-.9 1.17-2.45 1.376-3.618.48-1.167-.898-1.367-2.449-.467-3.62.825-1.074 2.45-1.377 3.618-.48zM5.193 141.133c1.167.897 1.368 2.448.468 3.619-.9 1.171-2.451 1.377-3.618.48-1.168-.897-1.368-2.448-.468-3.619.9-1.172 2.45-1.377 3.618-.48zm13.425-17.47c1.167.897 1.368 2.448.468 3.619-.9 1.172-2.45 1.377-3.618.48-1.167-.897-1.368-2.448-.468-3.619.825-1.074 2.45-1.377 3.618-.48zm13.35-17.372c1.168.897 1.368 2.448.468 3.619-.9 1.172-2.45 1.377-3.618.48-1.167-.897-1.293-2.546-.468-3.619.9-1.171 2.45-1.377 3.618-.48zm13.426-17.47c1.167.897 1.367 2.448.467 3.62-.9 1.17-2.45 1.376-3.618.48-1.167-.898-1.292-2.546-.467-3.62.825-1.073 2.45-1.377 3.617-.48zm13.425-17.469c1.167.897 1.367 2.448.467 3.619-.9 1.171-2.45 1.377-3.617.48-1.168-.897-1.368-2.448-.468-3.62.825-1.073 2.45-1.376 3.618-.48zM72.244 53.88c1.167.898 1.368 2.45.468 3.62-.9 1.171-2.45 1.377-3.618.48-1.167-.897-1.368-2.448-.468-3.62.9-1.17 2.45-1.376 3.618-.48zm13.35-17.371c1.167.897 1.368 2.448.468 3.62-.9 1.17-2.45 1.376-3.618.479-1.167-.897-1.368-2.448-.468-3.62.9-1.17 2.45-1.376 3.618-.48zM99.02 19.04c1.167.896 1.367 2.447.467 3.619-.9 1.17-2.45 1.376-3.618.48-1.167-.898-1.367-2.449-.467-3.62.9-1.171 2.45-1.377 3.617-.48zm13.425-17.47c1.167.896 1.367 2.448.467 3.619-.9 1.17-2.45 1.376-3.617.48-1.168-.898-1.368-2.449-.468-3.62.825-1.073 2.45-1.377 3.618-.48zM19.686 152.272c1.168.897 1.368 2.448.468 3.619-.9 1.171-2.548 1.302-3.618.48-1.167-.897-1.367-2.449-.467-3.62.9-1.171 2.45-1.377 3.617-.479zm13.426-17.471c1.167.897 1.367 2.448.468 3.619-.9 1.171-2.451 1.377-3.618.48-1.168-.897-1.368-2.448-.468-3.619.825-1.074 2.45-1.377 3.618-.48zm13.35-17.372c1.167.897 1.368 2.448.468 3.619-.9 1.171-2.45 1.377-3.618.48-1.167-.897-1.368-2.448-.468-3.62.9-1.171 2.45-1.376 3.618-.479zm13.425-17.47c1.167.897 1.368 2.448.468 3.619-.9 1.172-2.45 1.377-3.618.48-1.167-.897-1.368-2.448-.468-3.619.9-1.171 2.45-1.377 3.618-.48zM73.312 82.49c1.168.896 1.368 2.448.468 3.619-.9 1.17-2.45 1.376-3.618.48-1.167-.898-1.367-2.449-.467-3.62.825-1.073 2.45-1.377 3.617-.48zm13.426-17.47c1.167.897 1.368 2.448.467 3.619-.9 1.171-2.45 1.377-3.617.48-1.168-.897-1.368-2.448-.468-3.62.9-1.17 2.45-1.376 3.618-.48zm13.35-17.372c1.167.896 1.368 2.448.468 3.619-.9 1.171-2.451 1.377-3.618.48-1.168-.898-1.368-2.449-.468-3.62.9-1.17 2.45-1.377 3.618-.48zm13.425-17.47c1.167.897 1.368 2.448.468 3.62-.9 1.17-2.451 1.376-3.618.479-1.167-.897-1.368-2.448-.468-3.62.9-1.17 2.451-1.376 3.618-.48zm13.425-17.47c1.168.897 1.368 2.448.468 3.62-.9 1.17-2.45 1.376-3.618.48-1.167-.898-1.367-2.45-.467-3.62.825-1.074 2.45-1.377 3.617-.48zM62.974 185.536c1.167.897 1.367 2.448.467 3.62-.9 1.171-2.45 1.376-3.617.479-1.168-.897-1.368-2.448-.468-3.619.9-1.171 2.548-1.302 3.618-.48zm13.425-17.47c1.167.897 1.368 2.449.468 3.62-.9 1.171-2.45 1.377-3.618.48-1.167-.898-1.368-2.449-.468-3.62.825-1.073 2.548-1.302 3.618-.48zm13.35-17.372c1.167.897 1.368 2.449.468 3.62-.9 1.171-2.45 1.376-3.618.479-1.167-.897-1.368-2.448-.468-3.619.9-1.171 2.548-1.302 3.618-.48zm13.425-17.469c1.168.897 1.368 2.448.468 3.619-.9 1.171-2.451 1.377-3.618.48-1.167-.897-1.368-2.448-.468-3.62.9-1.171 2.548-1.302 3.618-.479zm13.426-17.47c1.167.897 1.367 2.448.467 3.619-.9 1.171-2.45 1.377-3.618.48-1.167-.897-1.367-2.448-.467-3.619.825-1.074 2.548-1.302 3.618-.48zm13.425-17.471c1.167.897 1.368 2.448.468 3.62-.9 1.171-2.451 1.376-3.618.479-1.168-.897-1.368-2.448-.468-3.62.9-1.17 2.548-1.301 3.618-.479zm13.35-17.372c1.167.897 1.368 2.448.468 3.62-.9 1.17-2.451 1.376-3.618.48-1.167-.898-1.368-2.449-.468-3.62.9-1.171 2.548-1.302 3.618-.48zm13.425-17.47c1.168.898 1.368 2.449.468 3.62-.9 1.17-2.451 1.377-3.618.48-1.167-.898-1.368-2.449-.468-3.62.9-1.171 2.548-1.302 3.618-.48zm13.426-17.469c1.167.897 1.367 2.448.467 3.619-.9 1.171-2.45 1.377-3.618.48-1.167-.897-1.367-2.448-.467-3.62.825-1.073 2.547-1.302 3.618-.48zM77.467 196.674c1.168.897 1.368 2.448.468 3.619-.9 1.171-2.45 1.377-3.618.48-1.167-.897-1.368-2.448-.468-3.619.9-1.172 2.45-1.377 3.618-.48zm13.425-17.47c1.168.897 1.368 2.448.468 3.619-.9 1.172-2.45 1.377-3.618.48-1.167-.897-1.367-2.448-.467-3.619.825-1.074 2.45-1.377 3.617-.48zm13.351-17.372c1.167.897 1.367 2.448.467 3.619-.9 1.172-2.45 1.377-3.617.48-1.168-.897-1.368-2.448-.468-3.619.9-1.171 2.45-1.377 3.618-.48zm13.893-13.85a2.582 2.582 0 00-.468-3.62 2.58 2.58 0 00-3.618.48 2.58 2.58 0 00.468 3.619 2.58 2.58 0 003.618-.479zm12.957-21.089c1.167.897 1.368 2.448.468 3.619-.9 1.171-2.451 1.377-3.618.48-1.167-.897-1.368-2.448-.468-3.62.825-1.073 2.451-1.376 3.618-.479zm13.425-17.47c1.168.897 1.368 2.448.468 3.619-.9 1.171-2.45 1.377-3.618.48-1.167-.897-1.367-2.448-.467-3.619.9-1.172 2.45-1.377 3.617-.48zm13.351-17.373c1.167.898 1.367 2.449.467 3.62-.9 1.171-2.45 1.377-3.617.48-1.168-.897-1.368-2.448-.468-3.62.9-1.17 2.45-1.376 3.618-.48zm13.893-13.85a2.581 2.581 0 00-.468-3.619 2.58 2.58 0 00-3.618.48 2.58 2.58 0 00.468 3.62 2.58 2.58 0 003.618-.48zm12.957-21.089c1.167.897 1.368 2.449.468 3.62-.9 1.17-2.451 1.377-3.618.48-1.167-.898-1.368-2.449-.468-3.62.825-1.074 2.451-1.377 3.618-.48zM91.96 207.813c1.168.897 1.369 2.448.469 3.619-.9 1.171-2.45 1.377-3.618.48-1.168-.897-1.368-2.449-.468-3.62.9-1.171 2.45-1.376 3.618-.479zm13.426-17.47c1.167.897 1.368 2.448.468 3.619-.9 1.171-2.451 1.377-3.618.48-1.167-.897-1.368-2.448-.468-3.619.825-1.074 2.451-1.377 3.618-.48zm13.35-17.372c1.168.897 1.368 2.448.468 3.619-.9 1.171-2.451 1.377-3.618.48-1.167-.897-1.368-2.448-.468-3.62.9-1.171 2.451-1.376 3.618-.479zm13.426-17.47c1.167.897 1.367 2.448.467 3.619-.9 1.172-2.45 1.377-3.617.48-1.168-.897-1.368-2.448-.468-3.619.9-1.171 2.45-1.377 3.618-.48zm13.425-17.47c1.167.897 1.368 2.448.468 3.62-.9 1.171-2.451 1.376-3.618.479-1.167-.897-1.368-2.448-.468-3.619.825-1.074 2.451-1.377 3.618-.48zm13.425-17.47c1.167.897 1.368 2.448.468 3.619-.9 1.171-2.451 1.377-3.618.48-1.167-.897-1.368-2.449-.468-3.62.9-1.171 2.451-1.376 3.618-.479zm13.35-17.372c1.168.897 1.368 2.448.468 3.619-.9 1.171-2.451 1.377-3.618.48-1.167-.897-1.368-2.449-.468-3.62.9-1.171 2.451-1.377 3.618-.479zm13.426-17.47c1.167.897 1.367 2.448.467 3.62-.9 1.17-2.45 1.376-3.618.479-1.167-.897-1.367-2.448-.467-3.62.9-1.17 2.45-1.376 3.618-.48zm13.425-17.469c1.167.896 1.368 2.447.468 3.618-.9 1.172-2.451 1.377-3.618.48-1.168-.897-1.368-2.448-.468-3.62.825-1.073 2.451-1.376 3.618-.479zm-92.856 150.626c1.168.897 1.368 2.448.468 3.619-.9 1.172-2.45 1.377-3.618.48-1.167-.897-1.367-2.448-.467-3.619.9-1.171 2.547-1.302 3.617-.48zm13.426-17.47c1.167.897 1.367 2.448.467 3.62-.9 1.171-2.45 1.376-3.617.479-1.168-.897-1.368-2.448-.468-3.619.825-1.074 2.548-1.302 3.618-.48zm13.35-17.372c1.167.897 1.367 2.448.467 3.62-.9 1.171-2.45 1.376-3.617.479-1.168-.897-1.368-2.448-.468-3.619.9-1.171 2.548-1.302 3.618-.48zm13.425-17.47c1.167.898 1.368 2.449.468 3.62-.9 1.171-2.451 1.377-3.618.48-1.167-.897-1.368-2.449-.468-3.62.9-1.171 2.548-1.302 3.618-.48zm13.425-17.47c1.168.897 1.368 2.448.468 3.619-.9 1.171-2.45 1.377-3.618.48-1.167-.897-1.367-2.448-.467-3.619.825-1.074 2.547-1.302 3.617-.48zm13.426-17.47c1.167.897 1.367 2.448.467 3.619-.9 1.172-2.45 1.377-3.617.48-1.168-.897-1.368-2.448-.468-3.619.9-1.171 2.548-1.302 3.618-.48zm13.35-17.372c1.167.897 1.367 2.448.467 3.619-.9 1.171-2.45 1.377-3.617.48-1.168-.897-1.368-2.448-.468-3.619.9-1.171 2.548-1.302 3.618-.48zm13.425-17.47c1.167.897 1.368 2.449.468 3.62-.9 1.171-2.451 1.376-3.618.479-1.167-.897-1.368-2.448-.468-3.619.9-1.171 2.548-1.302 3.618-.48zm13.425-17.469c1.168.897 1.368 2.448.468 3.619-.9 1.171-2.45 1.377-3.618.48-1.167-.897-1.367-2.449-.467-3.62.825-1.073 2.547-1.302 3.617-.48z" fill="#FFCF2D"/></svg>